<mxfile host="Electron" agent="Mozilla/5.0 (Windows NT 10.0; Win64; x64) AppleWebKit/537.36 (KHTML, like Gecko) draw.io/24.7.5 Chrome/126.0.6478.183 Electron/31.3.0 Safari/537.36" version="24.7.5">
  <diagram name="Page-1" id="VsZbndNru9LdD7hVfrOI">
    <mxGraphModel dx="1358" dy="832" grid="1" gridSize="10" guides="1" tooltips="1" connect="1" arrows="1" fold="1" page="1" pageScale="1" pageWidth="850" pageHeight="1100" math="0" shadow="0">
      <root>
        <mxCell id="0" />
        <mxCell id="1" parent="0" />
        <mxCell id="Gbnt6xtD3C1i9Smd8AZc-1" value="&lt;font style=&quot;font-size: 14px;&quot;&gt;Informing API about how game ended.&lt;/font&gt;&lt;div style=&quot;font-size: 14px;&quot;&gt;&lt;font style=&quot;font-size: 14px;&quot;&gt;As well as some additional logic related to it.&lt;/font&gt;&lt;/div&gt;" style="text;html=1;align=center;verticalAlign=middle;whiteSpace=wrap;rounded=0;" vertex="1" parent="1">
          <mxGeometry x="10" y="10" width="280" height="40" as="geometry" />
        </mxCell>
        <mxCell id="Gbnt6xtD3C1i9Smd8AZc-95" value="" style="group" vertex="1" connectable="0" parent="1">
          <mxGeometry x="25" y="80" width="800" height="680" as="geometry" />
        </mxCell>
        <mxCell id="Gbnt6xtD3C1i9Smd8AZc-57" style="edgeStyle=orthogonalEdgeStyle;rounded=0;orthogonalLoop=1;jettySize=auto;html=1;entryX=0;entryY=0.5;entryDx=0;entryDy=0;movable=1;resizable=1;rotatable=1;deletable=1;editable=1;locked=0;connectable=1;" edge="1" parent="Gbnt6xtD3C1i9Smd8AZc-95" source="Gbnt6xtD3C1i9Smd8AZc-29" target="Gbnt6xtD3C1i9Smd8AZc-52">
          <mxGeometry relative="1" as="geometry" />
        </mxCell>
        <mxCell id="Gbnt6xtD3C1i9Smd8AZc-59" style="edgeStyle=orthogonalEdgeStyle;rounded=0;orthogonalLoop=1;jettySize=auto;html=1;exitX=0.5;exitY=1;exitDx=0;exitDy=0;exitPerimeter=0;entryX=1;entryY=0.5;entryDx=0;entryDy=0;movable=1;resizable=1;rotatable=1;deletable=1;editable=1;locked=0;connectable=1;" edge="1" parent="Gbnt6xtD3C1i9Smd8AZc-95" source="Gbnt6xtD3C1i9Smd8AZc-29" target="Gbnt6xtD3C1i9Smd8AZc-58">
          <mxGeometry relative="1" as="geometry" />
        </mxCell>
        <mxCell id="Gbnt6xtD3C1i9Smd8AZc-29" value="Did the logged-in player win?" style="strokeWidth=2;html=1;shape=mxgraph.flowchart.decision;whiteSpace=wrap;movable=1;resizable=1;rotatable=1;deletable=1;editable=1;locked=0;connectable=1;" vertex="1" parent="Gbnt6xtD3C1i9Smd8AZc-95">
          <mxGeometry x="366.25" y="282" width="192.5" height="100" as="geometry" />
        </mxCell>
        <mxCell id="Gbnt6xtD3C1i9Smd8AZc-44" style="edgeStyle=orthogonalEdgeStyle;rounded=0;orthogonalLoop=1;jettySize=auto;html=1;exitX=1;exitY=0.5;exitDx=0;exitDy=0;exitPerimeter=0;entryX=0;entryY=0.5;entryDx=0;entryDy=0;movable=1;resizable=1;rotatable=1;deletable=1;editable=1;locked=0;connectable=1;" edge="1" parent="Gbnt6xtD3C1i9Smd8AZc-95" source="Gbnt6xtD3C1i9Smd8AZc-32" target="Gbnt6xtD3C1i9Smd8AZc-43">
          <mxGeometry relative="1" as="geometry" />
        </mxCell>
        <mxCell id="Gbnt6xtD3C1i9Smd8AZc-32" value="Game ends" style="strokeWidth=2;html=1;shape=mxgraph.flowchart.start_1;whiteSpace=wrap;movable=1;resizable=1;rotatable=1;deletable=1;editable=1;locked=0;connectable=1;" vertex="1" parent="Gbnt6xtD3C1i9Smd8AZc-95">
          <mxGeometry x="30" y="87" width="100" height="60" as="geometry" />
        </mxCell>
        <mxCell id="Gbnt6xtD3C1i9Smd8AZc-41" style="edgeStyle=orthogonalEdgeStyle;rounded=0;orthogonalLoop=1;jettySize=auto;html=1;entryX=0;entryY=0.5;entryDx=0;entryDy=0;movable=1;resizable=1;rotatable=1;deletable=1;editable=1;locked=0;connectable=1;" edge="1" parent="Gbnt6xtD3C1i9Smd8AZc-95" source="Gbnt6xtD3C1i9Smd8AZc-38" target="Gbnt6xtD3C1i9Smd8AZc-40">
          <mxGeometry relative="1" as="geometry" />
        </mxCell>
        <mxCell id="Gbnt6xtD3C1i9Smd8AZc-38" value="Is the game result already saved?" style="strokeWidth=2;html=1;shape=mxgraph.flowchart.decision;whiteSpace=wrap;movable=1;resizable=1;rotatable=1;deletable=1;editable=1;locked=0;connectable=1;" vertex="1" parent="Gbnt6xtD3C1i9Smd8AZc-95">
          <mxGeometry x="395" y="52" width="135" height="130" as="geometry" />
        </mxCell>
        <mxCell id="Gbnt6xtD3C1i9Smd8AZc-40" value="API saves game result" style="rounded=1;whiteSpace=wrap;html=1;absoluteArcSize=1;arcSize=14;strokeWidth=2;movable=1;resizable=1;rotatable=1;deletable=1;editable=1;locked=0;connectable=1;" vertex="1" parent="Gbnt6xtD3C1i9Smd8AZc-95">
          <mxGeometry x="640" y="67" width="100" height="100" as="geometry" />
        </mxCell>
        <mxCell id="Gbnt6xtD3C1i9Smd8AZc-45" style="edgeStyle=orthogonalEdgeStyle;rounded=0;orthogonalLoop=1;jettySize=auto;html=1;exitX=1;exitY=0.5;exitDx=0;exitDy=0;entryX=0;entryY=0.5;entryDx=0;entryDy=0;entryPerimeter=0;movable=1;resizable=1;rotatable=1;deletable=1;editable=1;locked=0;connectable=1;" edge="1" parent="Gbnt6xtD3C1i9Smd8AZc-95" source="Gbnt6xtD3C1i9Smd8AZc-43" target="Gbnt6xtD3C1i9Smd8AZc-38">
          <mxGeometry relative="1" as="geometry" />
        </mxCell>
        <mxCell id="Gbnt6xtD3C1i9Smd8AZc-46" value="No" style="text;html=1;align=center;verticalAlign=middle;whiteSpace=wrap;rounded=0;movable=1;resizable=1;rotatable=1;deletable=1;editable=1;locked=0;connectable=1;" vertex="1" parent="Gbnt6xtD3C1i9Smd8AZc-95">
          <mxGeometry x="550" y="87" width="60" height="30" as="geometry" />
        </mxCell>
        <mxCell id="Gbnt6xtD3C1i9Smd8AZc-47" value="" style="endArrow=classic;html=1;rounded=0;exitX=0.5;exitY=1;exitDx=0;exitDy=0;exitPerimeter=0;entryX=0.5;entryY=0;entryDx=0;entryDy=0;entryPerimeter=0;movable=1;resizable=1;rotatable=1;deletable=1;editable=1;locked=0;connectable=1;" edge="1" parent="Gbnt6xtD3C1i9Smd8AZc-95" source="Gbnt6xtD3C1i9Smd8AZc-38" target="Gbnt6xtD3C1i9Smd8AZc-29">
          <mxGeometry width="50" height="50" relative="1" as="geometry">
            <mxPoint x="350" y="252" as="sourcePoint" />
            <mxPoint x="400" y="202" as="targetPoint" />
          </mxGeometry>
        </mxCell>
        <mxCell id="Gbnt6xtD3C1i9Smd8AZc-48" value="Yes" style="text;html=1;align=center;verticalAlign=middle;whiteSpace=wrap;rounded=0;movable=1;resizable=1;rotatable=1;deletable=1;editable=1;locked=0;connectable=1;" vertex="1" parent="Gbnt6xtD3C1i9Smd8AZc-95">
          <mxGeometry x="400" y="212" width="60" height="30" as="geometry" />
        </mxCell>
        <mxCell id="Gbnt6xtD3C1i9Smd8AZc-49" style="edgeStyle=orthogonalEdgeStyle;rounded=0;orthogonalLoop=1;jettySize=auto;html=1;entryX=0.5;entryY=0;entryDx=0;entryDy=0;entryPerimeter=0;movable=1;resizable=1;rotatable=1;deletable=1;editable=1;locked=0;connectable=1;" edge="1" parent="Gbnt6xtD3C1i9Smd8AZc-95" source="Gbnt6xtD3C1i9Smd8AZc-40" target="Gbnt6xtD3C1i9Smd8AZc-29">
          <mxGeometry relative="1" as="geometry">
            <Array as="points">
              <mxPoint x="690" y="222" />
              <mxPoint x="464" y="222" />
            </Array>
          </mxGeometry>
        </mxCell>
        <mxCell id="Gbnt6xtD3C1i9Smd8AZc-51" value="API sends the steal token, SoulHome _id and Room _ids from which Items can be stolen" style="rounded=1;whiteSpace=wrap;html=1;absoluteArcSize=1;arcSize=14;strokeWidth=2;movable=1;resizable=1;rotatable=1;deletable=1;editable=1;locked=0;connectable=1;" vertex="1" parent="Gbnt6xtD3C1i9Smd8AZc-95">
          <mxGeometry x="220" y="542" width="100" height="100" as="geometry" />
        </mxCell>
        <mxCell id="Gbnt6xtD3C1i9Smd8AZc-61" style="edgeStyle=orthogonalEdgeStyle;rounded=0;orthogonalLoop=1;jettySize=auto;html=1;entryX=1;entryY=0.5;entryDx=0;entryDy=0;movable=1;resizable=1;rotatable=1;deletable=1;editable=1;locked=0;connectable=1;" edge="1" parent="Gbnt6xtD3C1i9Smd8AZc-95" source="Gbnt6xtD3C1i9Smd8AZc-52" target="Gbnt6xtD3C1i9Smd8AZc-51">
          <mxGeometry relative="1" as="geometry">
            <Array as="points">
              <mxPoint x="705" y="592" />
            </Array>
          </mxGeometry>
        </mxCell>
        <mxCell id="Gbnt6xtD3C1i9Smd8AZc-52" value="API generates JWT steal token containing player_id who can steal, soulhome_id where to steal and token expiresOn" style="rounded=1;whiteSpace=wrap;html=1;absoluteArcSize=1;arcSize=14;strokeWidth=2;movable=1;resizable=1;rotatable=1;deletable=1;editable=1;locked=0;connectable=1;" vertex="1" parent="Gbnt6xtD3C1i9Smd8AZc-95">
          <mxGeometry x="640" y="282" width="130" height="100" as="geometry" />
        </mxCell>
        <mxCell id="Gbnt6xtD3C1i9Smd8AZc-56" value="Yes" style="text;html=1;align=center;verticalAlign=middle;whiteSpace=wrap;rounded=0;movable=1;resizable=1;rotatable=1;deletable=1;editable=1;locked=0;connectable=1;" vertex="1" parent="Gbnt6xtD3C1i9Smd8AZc-95">
          <mxGeometry x="565" y="302" width="60" height="30" as="geometry" />
        </mxCell>
        <mxCell id="Gbnt6xtD3C1i9Smd8AZc-58" value="API sends 403 error" style="rounded=1;whiteSpace=wrap;html=1;absoluteArcSize=1;arcSize=14;strokeWidth=2;movable=1;resizable=1;rotatable=1;deletable=1;editable=1;locked=0;connectable=1;" vertex="1" parent="Gbnt6xtD3C1i9Smd8AZc-95">
          <mxGeometry x="220" y="402" width="100" height="100" as="geometry" />
        </mxCell>
        <mxCell id="Gbnt6xtD3C1i9Smd8AZc-60" value="No" style="text;html=1;align=center;verticalAlign=middle;whiteSpace=wrap;rounded=0;movable=1;resizable=1;rotatable=1;deletable=1;editable=1;locked=0;connectable=1;" vertex="1" parent="Gbnt6xtD3C1i9Smd8AZc-95">
          <mxGeometry x="400" y="402" width="60" height="30" as="geometry" />
        </mxCell>
        <mxCell id="Gbnt6xtD3C1i9Smd8AZc-62" value="Game recieves response" style="strokeWidth=2;html=1;shape=mxgraph.flowchart.terminator;whiteSpace=wrap;movable=1;resizable=1;rotatable=1;deletable=1;editable=1;locked=0;connectable=1;" vertex="1" parent="Gbnt6xtD3C1i9Smd8AZc-95">
          <mxGeometry x="20" y="482" width="100" height="60" as="geometry" />
        </mxCell>
        <mxCell id="Gbnt6xtD3C1i9Smd8AZc-63" style="edgeStyle=orthogonalEdgeStyle;rounded=0;orthogonalLoop=1;jettySize=auto;html=1;entryX=1;entryY=0.5;entryDx=0;entryDy=0;entryPerimeter=0;movable=1;resizable=1;rotatable=1;deletable=1;editable=1;locked=0;connectable=1;" edge="1" parent="Gbnt6xtD3C1i9Smd8AZc-95" source="Gbnt6xtD3C1i9Smd8AZc-58" target="Gbnt6xtD3C1i9Smd8AZc-62">
          <mxGeometry relative="1" as="geometry" />
        </mxCell>
        <mxCell id="Gbnt6xtD3C1i9Smd8AZc-64" style="edgeStyle=orthogonalEdgeStyle;rounded=0;orthogonalLoop=1;jettySize=auto;html=1;exitX=0;exitY=0.5;exitDx=0;exitDy=0;entryX=1;entryY=0.5;entryDx=0;entryDy=0;entryPerimeter=0;movable=1;resizable=1;rotatable=1;deletable=1;editable=1;locked=0;connectable=1;" edge="1" parent="Gbnt6xtD3C1i9Smd8AZc-95" source="Gbnt6xtD3C1i9Smd8AZc-51" target="Gbnt6xtD3C1i9Smd8AZc-62">
          <mxGeometry relative="1" as="geometry" />
        </mxCell>
        <mxCell id="Gbnt6xtD3C1i9Smd8AZc-65" value="Game results informing and getting steal token" style="swimlane;whiteSpace=wrap;html=1;movable=1;resizable=1;rotatable=1;deletable=1;editable=1;locked=0;connectable=1;" vertex="1" parent="Gbnt6xtD3C1i9Smd8AZc-95">
          <mxGeometry x="-5" width="800" height="680" as="geometry">
            <mxRectangle width="290" height="30" as="alternateBounds" />
          </mxGeometry>
        </mxCell>
        <mxCell id="Gbnt6xtD3C1i9Smd8AZc-67" value="" style="endArrow=none;dashed=1;html=1;dashPattern=1 3;strokeWidth=2;rounded=0;movable=1;resizable=1;rotatable=1;deletable=1;editable=1;locked=0;connectable=1;" edge="1" parent="Gbnt6xtD3C1i9Smd8AZc-65">
          <mxGeometry width="50" height="50" relative="1" as="geometry">
            <mxPoint x="360" y="657" as="sourcePoint" />
            <mxPoint x="360" y="37" as="targetPoint" />
          </mxGeometry>
        </mxCell>
        <mxCell id="Gbnt6xtD3C1i9Smd8AZc-68" value="&lt;b&gt;Game side&lt;/b&gt;" style="text;html=1;align=center;verticalAlign=middle;whiteSpace=wrap;rounded=0;movable=1;resizable=1;rotatable=1;deletable=1;editable=1;locked=0;connectable=1;" vertex="1" parent="Gbnt6xtD3C1i9Smd8AZc-65">
          <mxGeometry x="50" y="37" width="80" height="30" as="geometry" />
        </mxCell>
        <mxCell id="Gbnt6xtD3C1i9Smd8AZc-69" value="&lt;b&gt;Server side&lt;/b&gt;" style="text;html=1;align=center;verticalAlign=middle;whiteSpace=wrap;rounded=0;movable=1;resizable=1;rotatable=1;deletable=1;editable=1;locked=0;connectable=1;" vertex="1" parent="Gbnt6xtD3C1i9Smd8AZc-65">
          <mxGeometry x="530" y="30" width="80" height="30" as="geometry" />
        </mxCell>
        <mxCell id="Gbnt6xtD3C1i9Smd8AZc-70" value="&lt;b&gt;Internet&lt;/b&gt;" style="text;html=1;align=center;verticalAlign=middle;whiteSpace=wrap;rounded=0;movable=1;resizable=1;rotatable=1;deletable=1;editable=1;locked=0;connectable=1;" vertex="1" parent="Gbnt6xtD3C1i9Smd8AZc-65">
          <mxGeometry x="240" y="30" width="80" height="30" as="geometry" />
        </mxCell>
        <mxCell id="Gbnt6xtD3C1i9Smd8AZc-43" value="Game informs how the game ended: team 1 player_ids, team 2 player_ids, duration in s" style="rounded=1;whiteSpace=wrap;html=1;absoluteArcSize=1;arcSize=14;strokeWidth=2;movable=1;resizable=1;rotatable=1;deletable=1;editable=1;locked=0;connectable=1;" vertex="1" parent="Gbnt6xtD3C1i9Smd8AZc-65">
          <mxGeometry x="220" y="67" width="100" height="100" as="geometry" />
        </mxCell>
        <mxCell id="Gbnt6xtD3C1i9Smd8AZc-66" value="" style="endArrow=none;dashed=1;html=1;dashPattern=1 3;strokeWidth=2;rounded=0;movable=1;resizable=1;rotatable=1;deletable=1;editable=1;locked=0;connectable=1;" edge="1" parent="Gbnt6xtD3C1i9Smd8AZc-95">
          <mxGeometry width="50" height="50" relative="1" as="geometry">
            <mxPoint x="190" y="660" as="sourcePoint" />
            <mxPoint x="190" y="40" as="targetPoint" />
          </mxGeometry>
        </mxCell>
        <mxCell id="Gbnt6xtD3C1i9Smd8AZc-96" value="" style="group" vertex="1" connectable="0" parent="1">
          <mxGeometry x="30" y="820" width="780" height="510" as="geometry" />
        </mxCell>
        <mxCell id="Gbnt6xtD3C1i9Smd8AZc-79" style="edgeStyle=orthogonalEdgeStyle;rounded=0;orthogonalLoop=1;jettySize=auto;html=1;entryX=0;entryY=0.5;entryDx=0;entryDy=0;" edge="1" parent="Gbnt6xtD3C1i9Smd8AZc-96" source="Gbnt6xtD3C1i9Smd8AZc-71" target="Gbnt6xtD3C1i9Smd8AZc-72">
          <mxGeometry relative="1" as="geometry" />
        </mxCell>
        <mxCell id="Gbnt6xtD3C1i9Smd8AZc-71" value="Game needs to display rooms from which items can be stolen" style="strokeWidth=2;html=1;shape=mxgraph.flowchart.start_1;whiteSpace=wrap;" vertex="1" parent="Gbnt6xtD3C1i9Smd8AZc-96">
          <mxGeometry x="15" y="85" width="170" height="90" as="geometry" />
        </mxCell>
        <mxCell id="Gbnt6xtD3C1i9Smd8AZc-72" value="Game sends steal token" style="rounded=1;whiteSpace=wrap;html=1;absoluteArcSize=1;arcSize=14;strokeWidth=2;" vertex="1" parent="Gbnt6xtD3C1i9Smd8AZc-96">
          <mxGeometry x="280" y="80" width="100" height="100" as="geometry" />
        </mxCell>
        <mxCell id="Gbnt6xtD3C1i9Smd8AZc-81" style="edgeStyle=orthogonalEdgeStyle;rounded=0;orthogonalLoop=1;jettySize=auto;html=1;exitX=1;exitY=0.5;exitDx=0;exitDy=0;exitPerimeter=0;entryX=0;entryY=0.5;entryDx=0;entryDy=0;" edge="1" parent="Gbnt6xtD3C1i9Smd8AZc-96" source="Gbnt6xtD3C1i9Smd8AZc-73" target="Gbnt6xtD3C1i9Smd8AZc-74">
          <mxGeometry relative="1" as="geometry" />
        </mxCell>
        <mxCell id="Gbnt6xtD3C1i9Smd8AZc-82" style="edgeStyle=orthogonalEdgeStyle;rounded=0;orthogonalLoop=1;jettySize=auto;html=1;exitX=0.5;exitY=1;exitDx=0;exitDy=0;exitPerimeter=0;entryX=1;entryY=0.5;entryDx=0;entryDy=0;" edge="1" parent="Gbnt6xtD3C1i9Smd8AZc-96" source="Gbnt6xtD3C1i9Smd8AZc-73" target="Gbnt6xtD3C1i9Smd8AZc-75">
          <mxGeometry relative="1" as="geometry" />
        </mxCell>
        <mxCell id="Gbnt6xtD3C1i9Smd8AZc-73" value="Is steal token valid?" style="strokeWidth=2;html=1;shape=mxgraph.flowchart.decision;whiteSpace=wrap;" vertex="1" parent="Gbnt6xtD3C1i9Smd8AZc-96">
          <mxGeometry x="475" y="75" width="105" height="110" as="geometry" />
        </mxCell>
        <mxCell id="Gbnt6xtD3C1i9Smd8AZc-83" style="edgeStyle=orthogonalEdgeStyle;rounded=0;orthogonalLoop=1;jettySize=auto;html=1;exitX=0.5;exitY=1;exitDx=0;exitDy=0;entryX=1;entryY=0.5;entryDx=0;entryDy=0;" edge="1" parent="Gbnt6xtD3C1i9Smd8AZc-96" source="Gbnt6xtD3C1i9Smd8AZc-74" target="Gbnt6xtD3C1i9Smd8AZc-76">
          <mxGeometry relative="1" as="geometry" />
        </mxCell>
        <mxCell id="Gbnt6xtD3C1i9Smd8AZc-74" value="API finds SoulHome and its Rooms based on the provided steal token" style="rounded=1;whiteSpace=wrap;html=1;absoluteArcSize=1;arcSize=14;strokeWidth=2;" vertex="1" parent="Gbnt6xtD3C1i9Smd8AZc-96">
          <mxGeometry x="665" y="80" width="100" height="100" as="geometry" />
        </mxCell>
        <mxCell id="Gbnt6xtD3C1i9Smd8AZc-75" value="API sends 403 error" style="rounded=1;whiteSpace=wrap;html=1;absoluteArcSize=1;arcSize=14;strokeWidth=2;" vertex="1" parent="Gbnt6xtD3C1i9Smd8AZc-96">
          <mxGeometry x="280" y="230" width="100" height="100" as="geometry" />
        </mxCell>
        <mxCell id="Gbnt6xtD3C1i9Smd8AZc-85" style="edgeStyle=orthogonalEdgeStyle;rounded=0;orthogonalLoop=1;jettySize=auto;html=1;exitX=0;exitY=0.5;exitDx=0;exitDy=0;" edge="1" parent="Gbnt6xtD3C1i9Smd8AZc-96" source="Gbnt6xtD3C1i9Smd8AZc-76" target="Gbnt6xtD3C1i9Smd8AZc-77">
          <mxGeometry relative="1" as="geometry" />
        </mxCell>
        <mxCell id="Gbnt6xtD3C1i9Smd8AZc-76" value="API sends SoulHome with its Rooms data" style="rounded=1;whiteSpace=wrap;html=1;absoluteArcSize=1;arcSize=14;strokeWidth=2;" vertex="1" parent="Gbnt6xtD3C1i9Smd8AZc-96">
          <mxGeometry x="280" y="370" width="100" height="100" as="geometry" />
        </mxCell>
        <mxCell id="Gbnt6xtD3C1i9Smd8AZc-77" value="Game receives response" style="strokeWidth=2;html=1;shape=mxgraph.flowchart.terminator;whiteSpace=wrap;" vertex="1" parent="Gbnt6xtD3C1i9Smd8AZc-96">
          <mxGeometry x="55" y="320" width="100" height="60" as="geometry" />
        </mxCell>
        <mxCell id="Gbnt6xtD3C1i9Smd8AZc-80" style="edgeStyle=orthogonalEdgeStyle;rounded=0;orthogonalLoop=1;jettySize=auto;html=1;entryX=0;entryY=0.5;entryDx=0;entryDy=0;entryPerimeter=0;" edge="1" parent="Gbnt6xtD3C1i9Smd8AZc-96" source="Gbnt6xtD3C1i9Smd8AZc-72" target="Gbnt6xtD3C1i9Smd8AZc-73">
          <mxGeometry relative="1" as="geometry" />
        </mxCell>
        <mxCell id="Gbnt6xtD3C1i9Smd8AZc-84" style="edgeStyle=orthogonalEdgeStyle;rounded=0;orthogonalLoop=1;jettySize=auto;html=1;exitX=0;exitY=0.5;exitDx=0;exitDy=0;entryX=1;entryY=0.5;entryDx=0;entryDy=0;entryPerimeter=0;" edge="1" parent="Gbnt6xtD3C1i9Smd8AZc-96" source="Gbnt6xtD3C1i9Smd8AZc-75" target="Gbnt6xtD3C1i9Smd8AZc-77">
          <mxGeometry relative="1" as="geometry" />
        </mxCell>
        <mxCell id="Gbnt6xtD3C1i9Smd8AZc-86" value="Yes" style="text;html=1;align=center;verticalAlign=middle;whiteSpace=wrap;rounded=0;" vertex="1" parent="Gbnt6xtD3C1i9Smd8AZc-96">
          <mxGeometry x="595" y="100" width="60" height="30" as="geometry" />
        </mxCell>
        <mxCell id="Gbnt6xtD3C1i9Smd8AZc-87" value="No" style="text;html=1;align=center;verticalAlign=middle;whiteSpace=wrap;rounded=0;" vertex="1" parent="Gbnt6xtD3C1i9Smd8AZc-96">
          <mxGeometry x="475" y="210" width="60" height="30" as="geometry" />
        </mxCell>
        <mxCell id="Gbnt6xtD3C1i9Smd8AZc-88" value="" style="endArrow=none;dashed=1;html=1;dashPattern=1 3;strokeWidth=2;rounded=0;" edge="1" parent="Gbnt6xtD3C1i9Smd8AZc-96">
          <mxGeometry width="50" height="50" relative="1" as="geometry">
            <mxPoint x="235" y="490" as="sourcePoint" />
            <mxPoint x="235" y="70" as="targetPoint" />
          </mxGeometry>
        </mxCell>
        <mxCell id="Gbnt6xtD3C1i9Smd8AZc-89" value="" style="endArrow=none;dashed=1;html=1;dashPattern=1 3;strokeWidth=2;rounded=0;" edge="1" parent="Gbnt6xtD3C1i9Smd8AZc-96">
          <mxGeometry width="50" height="50" relative="1" as="geometry">
            <mxPoint x="435" y="490" as="sourcePoint" />
            <mxPoint x="435" y="60" as="targetPoint" />
          </mxGeometry>
        </mxCell>
        <mxCell id="Gbnt6xtD3C1i9Smd8AZc-90" value="&lt;b&gt;Game side&lt;/b&gt;" style="text;html=1;align=center;verticalAlign=middle;whiteSpace=wrap;rounded=0;" vertex="1" parent="Gbnt6xtD3C1i9Smd8AZc-96">
          <mxGeometry x="60" y="40" width="80" height="30" as="geometry" />
        </mxCell>
        <mxCell id="Gbnt6xtD3C1i9Smd8AZc-91" value="&lt;b&gt;Internet&lt;/b&gt;" style="text;html=1;align=center;verticalAlign=middle;whiteSpace=wrap;rounded=0;" vertex="1" parent="Gbnt6xtD3C1i9Smd8AZc-96">
          <mxGeometry x="295" y="30" width="80" height="30" as="geometry" />
        </mxCell>
        <mxCell id="Gbnt6xtD3C1i9Smd8AZc-92" value="&lt;b&gt;Server side&lt;/b&gt;" style="text;html=1;align=center;verticalAlign=middle;whiteSpace=wrap;rounded=0;" vertex="1" parent="Gbnt6xtD3C1i9Smd8AZc-96">
          <mxGeometry x="535" y="40" width="80" height="30" as="geometry" />
        </mxCell>
        <mxCell id="Gbnt6xtD3C1i9Smd8AZc-93" value="Get rooms from which items can be stolen" style="swimlane;whiteSpace=wrap;html=1;" vertex="1" parent="Gbnt6xtD3C1i9Smd8AZc-96">
          <mxGeometry width="780" height="510" as="geometry">
            <mxRectangle x="40" y="890" width="260" height="30" as="alternateBounds" />
          </mxGeometry>
        </mxCell>
        <mxCell id="Gbnt6xtD3C1i9Smd8AZc-106" style="edgeStyle=orthogonalEdgeStyle;rounded=0;orthogonalLoop=1;jettySize=auto;html=1;exitX=1;exitY=0.5;exitDx=0;exitDy=0;exitPerimeter=0;entryX=0;entryY=0.5;entryDx=0;entryDy=0;" edge="1" parent="1" source="Gbnt6xtD3C1i9Smd8AZc-97" target="Gbnt6xtD3C1i9Smd8AZc-98">
          <mxGeometry relative="1" as="geometry" />
        </mxCell>
        <mxCell id="Gbnt6xtD3C1i9Smd8AZc-97" value="Player has chosen items to stole" style="strokeWidth=2;html=1;shape=mxgraph.flowchart.start_1;whiteSpace=wrap;" vertex="1" parent="1">
          <mxGeometry x="35" y="1530" width="100" height="60" as="geometry" />
        </mxCell>
        <mxCell id="Gbnt6xtD3C1i9Smd8AZc-98" value="Game sends which items need to be stolen and steal token" style="rounded=1;whiteSpace=wrap;html=1;absoluteArcSize=1;arcSize=14;strokeWidth=2;" vertex="1" parent="1">
          <mxGeometry x="295" y="1510" width="100" height="100" as="geometry" />
        </mxCell>
        <mxCell id="Gbnt6xtD3C1i9Smd8AZc-108" style="edgeStyle=orthogonalEdgeStyle;rounded=0;orthogonalLoop=1;jettySize=auto;html=1;exitX=1;exitY=0.5;exitDx=0;exitDy=0;exitPerimeter=0;entryX=0;entryY=0.5;entryDx=0;entryDy=0;" edge="1" parent="1" source="Gbnt6xtD3C1i9Smd8AZc-99" target="Gbnt6xtD3C1i9Smd8AZc-100">
          <mxGeometry relative="1" as="geometry" />
        </mxCell>
        <mxCell id="Gbnt6xtD3C1i9Smd8AZc-99" value="Are all items belong&amp;nbsp;&lt;div&gt;to the SoulHome&amp;nbsp;&lt;/div&gt;&lt;div&gt;basing on token?&lt;/div&gt;" style="strokeWidth=2;html=1;shape=mxgraph.flowchart.decision;whiteSpace=wrap;" vertex="1" parent="1">
          <mxGeometry x="475" y="1507.5" width="170" height="105" as="geometry" />
        </mxCell>
        <mxCell id="Gbnt6xtD3C1i9Smd8AZc-110" style="edgeStyle=orthogonalEdgeStyle;rounded=0;orthogonalLoop=1;jettySize=auto;html=1;exitX=0.5;exitY=1;exitDx=0;exitDy=0;" edge="1" parent="1" source="Gbnt6xtD3C1i9Smd8AZc-100" target="Gbnt6xtD3C1i9Smd8AZc-101">
          <mxGeometry relative="1" as="geometry" />
        </mxCell>
        <mxCell id="Gbnt6xtD3C1i9Smd8AZc-100" value="Filter out all items not belonging to the SoulHome" style="rounded=1;whiteSpace=wrap;html=1;absoluteArcSize=1;arcSize=14;strokeWidth=2;" vertex="1" parent="1">
          <mxGeometry x="710" y="1510" width="100" height="100" as="geometry" />
        </mxCell>
        <mxCell id="Gbnt6xtD3C1i9Smd8AZc-111" style="edgeStyle=orthogonalEdgeStyle;rounded=0;orthogonalLoop=1;jettySize=auto;html=1;exitX=1;exitY=0.5;exitDx=0;exitDy=0;exitPerimeter=0;entryX=0;entryY=0.5;entryDx=0;entryDy=0;" edge="1" parent="1" source="Gbnt6xtD3C1i9Smd8AZc-101" target="Gbnt6xtD3C1i9Smd8AZc-102">
          <mxGeometry relative="1" as="geometry" />
        </mxCell>
        <mxCell id="Gbnt6xtD3C1i9Smd8AZc-112" style="edgeStyle=orthogonalEdgeStyle;rounded=0;orthogonalLoop=1;jettySize=auto;html=1;exitX=0.5;exitY=1;exitDx=0;exitDy=0;exitPerimeter=0;entryX=1;entryY=0.5;entryDx=0;entryDy=0;" edge="1" parent="1" source="Gbnt6xtD3C1i9Smd8AZc-101" target="Gbnt6xtD3C1i9Smd8AZc-104">
          <mxGeometry relative="1" as="geometry" />
        </mxCell>
        <mxCell id="Gbnt6xtD3C1i9Smd8AZc-101" value="Is there any items&amp;nbsp;&lt;div&gt;that has&amp;nbsp;&lt;span style=&quot;background-color: initial;&quot;&gt;been stolen already by another player?&lt;/span&gt;&lt;/div&gt;" style="strokeWidth=2;html=1;shape=mxgraph.flowchart.decision;whiteSpace=wrap;" vertex="1" parent="1">
          <mxGeometry x="465" y="1740" width="190" height="130" as="geometry" />
        </mxCell>
        <mxCell id="Gbnt6xtD3C1i9Smd8AZc-113" style="edgeStyle=orthogonalEdgeStyle;rounded=0;orthogonalLoop=1;jettySize=auto;html=1;exitX=0.5;exitY=1;exitDx=0;exitDy=0;entryX=1;entryY=0.5;entryDx=0;entryDy=0;" edge="1" parent="1" source="Gbnt6xtD3C1i9Smd8AZc-102" target="Gbnt6xtD3C1i9Smd8AZc-104">
          <mxGeometry relative="1" as="geometry" />
        </mxCell>
        <mxCell id="Gbnt6xtD3C1i9Smd8AZc-102" value="Filter out all items which are already stolen" style="rounded=1;whiteSpace=wrap;html=1;absoluteArcSize=1;arcSize=14;strokeWidth=2;" vertex="1" parent="1">
          <mxGeometry x="710" y="1755" width="100" height="100" as="geometry" />
        </mxCell>
        <mxCell id="Gbnt6xtD3C1i9Smd8AZc-104" value="API sends array of items, which were successfully stolen" style="rounded=1;whiteSpace=wrap;html=1;absoluteArcSize=1;arcSize=14;strokeWidth=2;" vertex="1" parent="1">
          <mxGeometry x="295" y="1880" width="100" height="100" as="geometry" />
        </mxCell>
        <mxCell id="Gbnt6xtD3C1i9Smd8AZc-105" value="Game receives response" style="strokeWidth=2;html=1;shape=mxgraph.flowchart.terminator;whiteSpace=wrap;" vertex="1" parent="1">
          <mxGeometry x="35" y="1900" width="100" height="60" as="geometry" />
        </mxCell>
        <mxCell id="Gbnt6xtD3C1i9Smd8AZc-107" style="edgeStyle=orthogonalEdgeStyle;rounded=0;orthogonalLoop=1;jettySize=auto;html=1;exitX=1;exitY=0.5;exitDx=0;exitDy=0;entryX=0;entryY=0.5;entryDx=0;entryDy=0;entryPerimeter=0;" edge="1" parent="1" source="Gbnt6xtD3C1i9Smd8AZc-98" target="Gbnt6xtD3C1i9Smd8AZc-99">
          <mxGeometry relative="1" as="geometry" />
        </mxCell>
        <mxCell id="Gbnt6xtD3C1i9Smd8AZc-109" style="edgeStyle=orthogonalEdgeStyle;rounded=0;orthogonalLoop=1;jettySize=auto;html=1;exitX=0.5;exitY=1;exitDx=0;exitDy=0;exitPerimeter=0;entryX=0.5;entryY=0;entryDx=0;entryDy=0;entryPerimeter=0;" edge="1" parent="1" source="Gbnt6xtD3C1i9Smd8AZc-99" target="Gbnt6xtD3C1i9Smd8AZc-101">
          <mxGeometry relative="1" as="geometry" />
        </mxCell>
        <mxCell id="Gbnt6xtD3C1i9Smd8AZc-114" style="edgeStyle=orthogonalEdgeStyle;rounded=0;orthogonalLoop=1;jettySize=auto;html=1;entryX=1;entryY=0.5;entryDx=0;entryDy=0;entryPerimeter=0;" edge="1" parent="1" source="Gbnt6xtD3C1i9Smd8AZc-104" target="Gbnt6xtD3C1i9Smd8AZc-105">
          <mxGeometry relative="1" as="geometry" />
        </mxCell>
        <mxCell id="Gbnt6xtD3C1i9Smd8AZc-115" value="No" style="text;html=1;align=center;verticalAlign=middle;whiteSpace=wrap;rounded=0;" vertex="1" parent="1">
          <mxGeometry x="645" y="1530" width="60" height="30" as="geometry" />
        </mxCell>
        <mxCell id="Gbnt6xtD3C1i9Smd8AZc-116" value="Yes" style="text;html=1;align=center;verticalAlign=middle;whiteSpace=wrap;rounded=0;" vertex="1" parent="1">
          <mxGeometry x="495" y="1660" width="60" height="30" as="geometry" />
        </mxCell>
        <mxCell id="Gbnt6xtD3C1i9Smd8AZc-117" value="Yes" style="text;html=1;align=center;verticalAlign=middle;whiteSpace=wrap;rounded=0;" vertex="1" parent="1">
          <mxGeometry x="645" y="1770" width="60" height="30" as="geometry" />
        </mxCell>
        <mxCell id="Gbnt6xtD3C1i9Smd8AZc-118" value="No" style="text;html=1;align=center;verticalAlign=middle;whiteSpace=wrap;rounded=0;" vertex="1" parent="1">
          <mxGeometry x="505" y="1880" width="60" height="30" as="geometry" />
        </mxCell>
        <mxCell id="Gbnt6xtD3C1i9Smd8AZc-119" value="" style="endArrow=none;dashed=1;html=1;dashPattern=1 3;strokeWidth=2;rounded=0;" edge="1" parent="1">
          <mxGeometry width="50" height="50" relative="1" as="geometry">
            <mxPoint x="225" y="2010" as="sourcePoint" />
            <mxPoint x="225" y="1490" as="targetPoint" />
          </mxGeometry>
        </mxCell>
        <mxCell id="Gbnt6xtD3C1i9Smd8AZc-120" value="" style="endArrow=none;dashed=1;html=1;dashPattern=1 3;strokeWidth=2;rounded=0;" edge="1" parent="1">
          <mxGeometry width="50" height="50" relative="1" as="geometry">
            <mxPoint x="455" y="2010" as="sourcePoint" />
            <mxPoint x="455" y="1490" as="targetPoint" />
          </mxGeometry>
        </mxCell>
        <mxCell id="Gbnt6xtD3C1i9Smd8AZc-121" value="&lt;b&gt;Game side&lt;/b&gt;" style="text;html=1;align=center;verticalAlign=middle;whiteSpace=wrap;rounded=0;" vertex="1" parent="1">
          <mxGeometry x="55" y="1470" width="80" height="30" as="geometry" />
        </mxCell>
        <mxCell id="Gbnt6xtD3C1i9Smd8AZc-122" value="&lt;b&gt;Internet&lt;/b&gt;" style="text;html=1;align=center;verticalAlign=middle;whiteSpace=wrap;rounded=0;" vertex="1" parent="1">
          <mxGeometry x="295" y="1470" width="80" height="30" as="geometry" />
        </mxCell>
        <mxCell id="Gbnt6xtD3C1i9Smd8AZc-123" value="&lt;b&gt;Server side&lt;/b&gt;" style="text;html=1;align=center;verticalAlign=middle;whiteSpace=wrap;rounded=0;" vertex="1" parent="1">
          <mxGeometry x="575" y="1470" width="80" height="30" as="geometry" />
        </mxCell>
        <mxCell id="Gbnt6xtD3C1i9Smd8AZc-124" value="Item stealing process" style="swimlane;whiteSpace=wrap;html=1;" vertex="1" parent="1">
          <mxGeometry x="20" y="1430" width="810" height="610" as="geometry" />
        </mxCell>
      </root>
    </mxGraphModel>
  </diagram>
</mxfile>
